<svg xmlns="http://www.w3.org/2000/svg" width="27.481" height="25" viewBox="0 0 27.481 25"><defs><style>.a{fill:#cbcbcb;}</style></defs><g transform="translate(0)"><path class="a" d="M-1551.744,338.942a14.533,14.533,0,0,1,3.64.7,24.821,24.821,0,0,1,7.12,3.9c.788.581,1.55,1.2,2.318,1.807a.921.921,0,0,1,.094,1.388c-.176.189-.358.372-.547.547a.326.326,0,0,0-.091.387,3.163,3.163,0,0,0,.813,1.151c.081.085.135.053.2-.012.59-.562,1.18-1.125,1.776-1.681.15-.14.029-.243-.023-.353a3.8,3.8,0,0,1,.951-4.553c.586-.5,1.166-1.017,1.75-1.525q2.391-2.084,4.785-4.166c.086-.075.181-.247.289-.172a2.079,2.079,0,0,1,.491.5c.053.075-.1.162-.17.232q-2.679,2.684-5.361,5.364a1.565,1.565,0,0,0-.209.227.443.443,0,0,0,.038.594.43.43,0,0,0,.589.071,1.562,1.562,0,0,0,.252-.227q2.682-2.68,5.358-5.367c.183-.185.274-.184.449,0,.45.476.459.467-.005.931l-5.122,5.122a1.5,1.5,0,0,0-.192.2.453.453,0,0,0,.029.62.437.437,0,0,0,.615.049,1.893,1.893,0,0,0,.226-.21q2.682-2.681,5.359-5.365c.162-.163.253-.194.428-.01.467.49.477.48,0,.953l-5.121,5.122a1.448,1.448,0,0,0-.209.227.439.439,0,0,0,.052.592.446.446,0,0,0,.593.059,1.348,1.348,0,0,0,.227-.209q2.682-2.681,5.357-5.368c.2-.2.3-.188.478.006.319.344.332.335.027.686q-.872,1.005-1.747,2.008-1.921,2.205-3.841,4.411a3.751,3.751,0,0,1-3.143,1.359,3.453,3.453,0,0,1-1.478-.4.251.251,0,0,0-.365.062c-.4.442-.813.879-1.237,1.3-.169.168-.174.263,0,.436q2.363,2.342,4.71,4.7,1.893,1.893,3.786,3.786a1.433,1.433,0,0,1,.059,2.1,1.452,1.452,0,0,1-2.1-.063q-4.2-4.2-8.4-8.41c-.2-.2-.3-.19-.487.01q-3.935,4.16-7.884,8.306a1.437,1.437,0,0,1-2.315-.09,1.422,1.422,0,0,1,.225-1.882q2.2-2.106,4.419-4.2,2-1.9,4-3.789c.154-.145.17-.222.011-.382q-5.61-5.6-11.21-11.2C-1551.551,339.153-1551.618,339.077-1551.744,338.942Z" transform="translate(1551.744 -336.346)"/></g></svg>