<svg xmlns="http://www.w3.org/2000/svg" width="27.281" height="30.102" viewBox="0 0 27.281 30.102"><defs><style>.a{fill:#cbcbcb;}</style></defs><g transform="translate(1959.028 -966.735)"><g transform="translate(-1959.028 966.735)"><path class="a" d="M-1946.967,1055.661c-.887,0-1.775.013-2.662-.007-.317-.007-.459.092-.435.409a.408.408,0,0,1,0,.046c-.046,1.035-.043,1.053-1.063,1.267a8.367,8.367,0,0,1-4.04-.034c-.648-.182-.691-.247-.7-.918a5.284,5.284,0,0,1,0-.6.611.611,0,0,0-.349-.675.989.989,0,0,1-.491-.777,25.923,25.923,0,0,1-.605-6.511,4.072,4.072,0,0,1,.85-2.425c.157-.187.118-.267-.055-.432-.493-.472-1.124-.345-1.7-.416a.745.745,0,0,1-.75-.744,3.731,3.731,0,0,1-.037-1.094c.144-.844.232-.948,1.074-.993a11.073,11.073,0,0,1,1.786.036.711.711,0,0,1,.692.7c.018.121.027.243.043.365a.446.446,0,0,0,.4.386c.23.031.173-.216.2-.34a22.949,22.949,0,0,1,2.017-5.15.836.836,0,0,1,.482-.447,19.146,19.146,0,0,1,5.6-1.092c.322-.016.448.049.474.408a4.321,4.321,0,0,0,.519,1.745c.289.536.284.557-.35.564a19.288,19.288,0,0,0-3.722.468,1.536,1.536,0,0,0-1.26,1.016c-.364.925-.723,1.846-1,2.8-.1.335-.054.445.313.376a30.71,30.71,0,0,1,3.134-.414,32.617,32.617,0,0,1,5-.087c.317.022.414.129.4.446q-.234,4.262-.444,8.525c-.052,1.024-.1,2.048-.127,3.073-.011.439-.169.625-.627.611-.856-.026-1.714-.007-2.571-.007Zm-5.177-5.549a5.428,5.428,0,0,0,1.676-.18c.861-.251,1.018-.745.406-1.393a7.493,7.493,0,0,0-3.255-1.958,2.42,2.42,0,0,0-.907-.089,1.735,1.735,0,0,0-1.616,1.14,1.712,1.712,0,0,0,.731,1.752,2.747,2.747,0,0,0,1.15.538A7.742,7.742,0,0,0-1952.144,1050.113Z" transform="translate(1959.028 -1029.835)"/><path class="a" d="M-1782.45,969.361c0,.765.011,1.531-.006,2.3-.007.3.094.4.394.392.995-.015,1.99-.019,2.984,0,.357.008.438-.132.435-.458-.014-1.469-.01-2.938-.01-4.407,0-.529.007-.538.5-.31a5.232,5.232,0,0,1,3.311,5.046,7.614,7.614,0,0,1-.3,2.719,5.314,5.314,0,0,1-2.592,2.915.5.5,0,0,0-.317.531c.119,2.153.227,4.307.337,6.46q.156,3.048.31,6.1c.046.917.093,1.834.129,2.751a3.266,3.266,0,0,1-2.674,3.4,3.273,3.273,0,0,1-3.78-2.441,7.659,7.659,0,0,1-.032-2.24c.061-1.451.164-2.9.239-4.352.151-2.917.273-5.836.457-8.752a1.654,1.654,0,0,0-.858-1.837,4.767,4.767,0,0,1-2.317-4.235,8.683,8.683,0,0,1,.166-2.51,5.339,5.339,0,0,1,3.307-3.621c.248-.1.321-.049.317.215-.01.78,0,1.561,0,2.342Z" transform="translate(1802.12 -966.735)"/></g></g></svg>