<svg xmlns="http://www.w3.org/2000/svg" width="18.367" height="19.951" viewBox="0 0 18.367 19.951"><defs><style>.a{fill:#434343;}</style></defs><path class="a" d="M672.382,327.512a1.133,1.133,0,0,0-.214.208,4.419,4.419,0,0,1-2.051,1.264,4.636,4.636,0,0,1-2.192-.022,17.95,17.95,0,0,1-1.8-.551,21.091,21.091,0,0,0-2.148-.652,4.2,4.2,0,0,0-4.219,1.331l-.114.119a.216.216,0,0,1-.019-.14q0-4.213,0-8.426a.313.313,0,0,1,.092-.234,4.766,4.766,0,0,1,1.839-1.285,4.129,4.129,0,0,1,2.07-.166,14.96,14.96,0,0,1,2.233.625c.728.231,1.446.5,2.2.656a4.2,4.2,0,0,0,4.2-1.347c.04-.042.083-.082.125-.122Zm-6.377-5.092v-1.385c0-.2,0-.2-.188-.268a14.614,14.614,0,0,0-2.356-.7,2.943,2.943,0,0,0-2.66.842.155.155,0,0,0-.056.119q0,1.373,0,2.745c0,.08.018.1.091.052a4.109,4.109,0,0,1,3.091-.457,13.9,13.9,0,0,1,1.958.587c.106.038.124.014.123-.09C666,323.386,666.006,322.9,666.006,322.42Zm0,1.583v.756q0,1.152,0,2.3c0,.057-.012.109.07.137a20.476,20.476,0,0,0,2.054.656,3.885,3.885,0,0,0,1.422.1,3.011,3.011,0,0,0,1.618-.828.251.251,0,0,0,.087-.207c0-.885,0-1.771,0-2.656,0-.04.021-.1-.016-.117s-.074.025-.108.045a3.927,3.927,0,0,1-2.477.519,8.734,8.734,0,0,1-1.841-.433C666.547,324.19,666.284,324.1,666.006,324Z" transform="translate(-654.015 -318.745)"/><path class="a" d="M542.386,317.77a.474.474,0,0,1,.282.494q-.007,8.374,0,16.747c0,.366-.126.492-.491.492h-.957a.376.376,0,0,1-.42-.419q0-8.443,0-16.886a.428.428,0,0,1,.282-.428Z" transform="translate(-538.179 -317.77)"/><path class="a" d="M437,966.982a1.676,1.676,0,0,1,.319-.715,2.472,2.472,0,0,1,1.066-.709c.065-.025.081,0,.081.059q0,.535,0,1.071a.116.116,0,0,1-.062.112.913.913,0,0,0-.122.089.344.344,0,0,0,0,.578,1.6,1.6,0,0,0,.591.3,5.955,5.955,0,0,0,2.116.212,4.948,4.948,0,0,0,1.307-.236,1.61,1.61,0,0,0,.47-.236c.275-.212.28-.46-.007-.653a.306.306,0,0,1-.153-.305c.01-.306,0-.613,0-.919,0-.052-.007-.107.077-.075a2.438,2.438,0,0,1,1.1.728,1.45,1.45,0,0,1-.208,2.013,3.108,3.108,0,0,1-1.482.673,7.543,7.543,0,0,1-3.367-.068,2.938,2.938,0,0,1-1.126-.537,1.5,1.5,0,0,1-.58-.941.326.326,0,0,0-.021-.058Z" transform="translate(-437 -949.17)"/></svg>