<svg xmlns="http://www.w3.org/2000/svg" width="46.566" height="29.268" viewBox="0 0 46.566 29.268"><defs><style>.a{fill:#cbcbcb;}</style></defs><g transform="translate(733.608 -109.482)"><g transform="translate(-733.608 109.482)"><path class="a" d="M-733.608,175.974a78.841,78.841,0,0,1,3.388-7.486q.452-1.024.966-2.019a2.959,2.959,0,0,1,2.711-1.721q5.477-.055,10.953,0a3.075,3.075,0,0,1,2.819,1.832c1.308,2.655,2.562,5.336,3.834,8.007a5.319,5.319,0,0,1,.494,2.32q0,3.765,0,7.531c0,.659-.18.838-.828.839-.926,0-1.851,0-2.777,0-.52,0-.7-.189-.708-.709,0-.482-.02-.965.006-1.445.017-.309-.063-.412-.39-.406-1.115.021-2.231.008-3.347.008q-6.181,0-12.361-.007c-.333,0-.473.064-.445.43.035.454.012.912.007,1.369-.006.556-.206.759-.753.76-.938,0-1.877-.01-2.815.007a.853.853,0,0,1-.754-.33Zm3.483-1.757h18.068a1.264,1.264,0,0,0-.052-.194c-.841-1.8-1.695-3.591-2.521-5.4a2.115,2.115,0,0,0-2.142-1.314c-2.916.017-5.831,0-8.747.007a1.874,1.874,0,0,0-1.848,1.144c-.459.986-.94,1.961-1.41,2.942C-729.22,172.328-729.661,173.25-730.125,174.218Zm15.689,4.035a1.916,1.916,0,0,0,1.893,2,1.992,1.992,0,0,0,1.981-1.9,1.931,1.931,0,0,0-1.961-1.937A1.862,1.862,0,0,0-714.436,178.253Zm-15.163-1.839a1.832,1.832,0,0,0-1.9,1.839,1.9,1.9,0,0,0,1.88,2,1.953,1.953,0,0,0,1.963-1.9A1.9,1.9,0,0,0-729.6,176.414Z" transform="translate(733.608 -156.015)"/><path class="a" d="M-563.694,155.5c-.3,1.1-.61,2.208-.9,3.314-.417,1.563-.825,3.128-1.238,4.692-.143.54-.41.709-.953.573-.895-.224-1.787-.46-2.677-.7a.65.65,0,0,1-.523-.89c.122-.477.258-.952.417-1.418.084-.248.04-.338-.222-.407-2.664-.7-5.325-1.415-7.987-2.124-2.027-.54-4.054-1.083-6.083-1.613-.271-.071-.392-.173-.378-.481a7.264,7.264,0,0,0-.129-2.041c-.064-.264.128-.24.288-.274a1.934,1.934,0,0,0,1.45-2.12,1.956,1.956,0,0,0-1.863-1.683,2.044,2.044,0,0,0-1.139.366c-.169.122-.247.1-.336-.084-.38-.814-.76-1.628-1.164-2.429-.129-.255.025-.379.15-.527q1.669-1.949,3.345-3.894c.719-.836,1.447-1.665,2.152-2.512a3.432,3.432,0,0,1,3.825-1.217q4.745,1.264,9.511,2.441a3.46,3.46,0,0,1,2.783,3.022c.516,2.874,1.069,5.742,1.609,8.613a1.032,1.032,0,0,0,.067.175Zm-20.317-7.284c.077.032.109.049.143.058q8.528,2.285,17.055,4.576c.366.1.36-.018.307-.3q-.543-2.869-1.071-5.74a2.126,2.126,0,0,0-1.7-1.81c-2.723-.72-5.443-1.452-8.153-2.222a2.278,2.278,0,0,0-2.624.813c-1.1,1.327-2.242,2.617-3.366,3.923C-583.615,147.743-583.805,147.974-584.011,148.218Zm15.942,6.592a1.818,1.818,0,0,0-1.883,1.97,1.921,1.921,0,0,0,1.9,1.917,2.012,2.012,0,0,0,1.924-1.925A1.962,1.962,0,0,0-568.069,154.81Z" transform="translate(610.26 -135.087)"/><path class="a" d="M-592.483,118.689q-.461-3.633-.921-7.266c-.054-.426-.123-.853-.143-1.281-.023-.486.142-.643.618-.654q.475-.011.95,0c.462.011.656.186.629.658-.035.593-.121,1.183-.2,1.772q-.357,2.843-.722,5.686c-.046.362-.1.723-.147,1.085Z" transform="translate(615.62 -109.482)"/><path class="a" d="M-616.866,135.661l-1.952-2.566c-.575-.756-1.153-1.51-1.724-2.269-.362-.481-.334-.632.159-.977a2.782,2.782,0,0,1,.29-.179c.476-.252.7-.188.925.315.387.879.752,1.767,1.123,2.653q.621,1.483,1.236,2.969Z" transform="translate(638.566 -126.368)"/><path class="a" d="M-577.245,132.389c.2-.472.389-.945.586-1.417q.883-2.114,1.768-4.226c.19-.454.346-.518.769-.313.159.077.319.152.475.236.452.241.5.463.193.871q-1.161,1.525-2.327,3.045-.7.918-1.4,1.837Z" transform="translate(601.886 -123.668)"/></g></g></svg>