<svg xmlns="http://www.w3.org/2000/svg" width="22.251" height="21.271" viewBox="0 0 22.251 21.271"><defs><style>.a{fill:#434343;}</style></defs><g transform="translate(0 0)"><path class="a" d="M-729.043,742.75c-1.236-1.182-2.479-2.358-3.712-3.544a.668.668,0,0,0-.511-.206q-6.462.022-12.924.027a.518.518,0,0,0-.39.157q-1.864,1.78-3.736,3.552a1.521,1.521,0,0,0-.49,1.144q0,7.4,0,14.791a1.544,1.544,0,0,0,1.606,1.6q4.748,0,9.5,0t9.518,0a1.562,1.562,0,0,0,1.63-1.63q0-7.383,0-14.767A1.5,1.5,0,0,0-729.043,742.75Zm-10.638,2.008,5.871,7.962H-737.3v4.323h-4.768v-4.323h-3.487ZM-748.2,742.3c.007-.085.068-.114.11-.155.668-.662,1.34-1.321,2.005-1.987a.444.444,0,0,1,.349-.138q6.042.025,12.084.04a.516.516,0,0,1,.39.155c.709.687,1.425,1.366,2.178,2.085Z" transform="translate(750.806 -739)"/></g></svg>