<?xml version="1.0" encoding="UTF-8" standalone="no"?>
<svg
   xmlns:dc="http://purl.org/dc/elements/1.1/"
   xmlns:cc="http://creativecommons.org/ns#"
   xmlns:rdf="http://www.w3.org/1999/02/22-rdf-syntax-ns#"
   xmlns:svg="http://www.w3.org/2000/svg"
   xmlns="http://www.w3.org/2000/svg"
   xmlns:sodipodi="http://sodipodi.sourceforge.net/DTD/sodipodi-0.dtd"
   xmlns:inkscape="http://www.inkscape.org/namespaces/inkscape"
   width="60"
   height="45"
   viewBox="0 0 59.999999 45"
   version="1.1"
   id="svg16"
   sodipodi:docname="HMaD4y.tif.svg"
   inkscape:export-filename="/home/alain/PuntoPro/alicorp/src/assets/img/accidente.png"
   inkscape:export-xdpi="96"
   inkscape:export-ydpi="96"
   inkscape:version="0.92.3 (2405546, 2018-03-11)">
  <metadata
     id="metadata20">
    <rdf:RDF>
      <cc:Work
         rdf:about="">
        <dc:format>image/svg+xml</dc:format>
        <dc:type
           rdf:resource="http://purl.org/dc/dcmitype/StillImage" />
        <dc:title></dc:title>
      </cc:Work>
    </rdf:RDF>
  </metadata>
  <sodipodi:namedview
     pagecolor="#ffffff"
     bordercolor="#666666"
     borderopacity="1"
     objecttolerance="10"
     gridtolerance="10"
     guidetolerance="10"
     inkscape:pageopacity="0"
     inkscape:pageshadow="2"
     inkscape:window-width="1366"
     inkscape:window-height="705"
     id="namedview18"
     showgrid="false"
     inkscape:zoom="4.35"
     inkscape:cx="35.369284"
     inkscape:cy="32.999958"
     inkscape:window-x="0"
     inkscape:window-y="30"
     inkscape:window-maximized="1"
     inkscape:current-layer="svg16" />
  <defs
     id="defs4">
    <style
       id="style2">.a{fill:#434343;}</style>
  </defs>
  <path
     class="a"
     d="M 7.5941147,28.198254 A 76.130443,76.130443 0 0 1 10.859967,20.96697 q 0.436592,-0.988349 0.933346,-1.950917 a 2.8584797,2.8584797 0 0 1 2.619557,-1.662146 q 5.290679,-0.05328 10.581359,0 a 2.9702062,2.9702062 0 0 1 2.722689,1.768716 c 1.26337,2.564554 2.475172,5.156608 3.704163,7.734912 a 5.1377005,5.1377005 0 0 1 0.477846,2.234531 q 0,3.637127 0,7.274255 c 0,0.635981 -0.171887,0.809587 -0.799274,0.809587 -0.893812,0 -1.787624,0 -2.681436,0 -0.501909,0 -0.687547,-0.1822 -0.687547,-0.687547 0,-0.465815 -0.01891,-0.931628 0,-1.395723 0.01547,-0.297364 -0.06188,-0.397058 -0.376433,-0.391902 -1.077731,0.02062 -2.155463,0 -3.233193,0 q -5.969634,0 -11.940986,0 c -0.321428,0 -0.457219,0.06188 -0.429718,0.415967 0.03438,0.438311 0.01209,0.88178 0,1.321811 0,0.538005 -0.199388,0.732237 -0.727081,0.733956 -0.905844,0 -1.8134083,-0.01029 -2.7192513,0 a 0.82333842,0.82333842 0 0 1 -0.728801,-0.31971 z m 3.3638273,-1.696525 h 17.448243 a 1.2307105,1.2307105 0 0 0 -0.04985,-0.187357 C 27.543313,24.576596 26.719974,22.845694 25.9207,21.10276 a 2.0437357,2.0437357 0 0 0 -2.062643,-1.268525 c -2.815508,0.01547 -5.632736,0 -8.449962,0 a 1.8099694,1.8099694 0 0 0 -1.785905,1.105233 c -0.443469,0.952253 -0.907564,1.890756 -1.363064,2.841291 z m 15.155271,3.898397 a 1.8512223,1.8512223 0 0 0 1.828877,1.932008 1.9234148,1.9234148 0 0 0 1.913102,-1.835752 1.8649733,1.8649733 0 0 0 -1.890756,-1.87185 1.7979373,1.7979373 0 0 0 -1.851223,1.773875 z M 11.466727,28.624532 a 1.7687165,1.7687165 0 0 0 -1.8340342,1.775594 1.8323148,1.8323148 0 0 0 1.8151272,1.932008 1.8907563,1.8907563 0 0 0 1.890756,-1.837471 1.8305959,1.8305959 0 0 0 -1.871849,-1.871848 z"
     id="path6"
     inkscape:connector-curvature="0"
     style="fill:#434343;stroke-width:1.71886945" />
  <path
     class="a"
     d="m 52.575207,28.638284 c -0.292208,1.067418 -0.589572,2.133117 -0.873185,3.202253 -0.402217,1.509168 -0.797556,3.021773 -1.203209,4.532658 -0.13751,0.515662 -0.39534,0.687549 -0.921314,0.553477 -0.859435,-0.216577 -1.718869,-0.445187 -2.578304,-0.675515 a 0.62738731,0.62738731 0 0 1 -0.505348,-0.859436 c 0.116884,-0.460656 0.249237,-0.919594 0.402216,-1.375095 0.08078,-0.238923 0.03954,-0.326585 -0.21486,-0.393621 C 44.1029,32.947489 41.538346,32.247909 38.966918,31.570675 37.009126,31.055014 35.051334,30.525602 33.090104,30.01166 32.827116,29.94291 32.711952,29.839774 32.725703,29.547566 A 7.0181436,7.0181436 0 0 0 32.60023,27.576022 c -0.06188,-0.254393 0.123763,-0.232047 0.278456,-0.264705 a 1.8684111,1.8684111 0 0 0 1.400879,-2.047174 1.8907563,1.8907563 0 0 0 -1.799656,-1.62605 1.974981,1.974981 0 0 0 -1.100076,0.354087 c -0.171887,0.116884 -0.238923,0.101417 -0.324867,-0.08078 -0.366118,-0.785522 -0.733957,-1.572765 -1.12414,-2.346256 -0.123762,-0.245799 0.02407,-0.36612 0.144385,-0.515662 q 1.6123,-1.890756 3.231474,-3.760885 c 0.687548,-0.807869 1.397441,-1.608862 2.078113,-2.427044 a 3.3139801,3.3139801 0 0 1 3.693851,-1.175706 q 4.582505,1.220396 9.187357,2.358288 a 3.3414821,3.3414821 0 0 1 2.688311,2.922078 c 0.498472,2.775974 1.031322,5.546792 1.546982,8.319328 a 0.99694423,0.99694423 0 0 0 0.06531,0.171886 z M 32.949156,21.601233 c 0.07392,0.03093 0.10485,0.04641 0.13751,0.05673 q 8.238541,2.207029 16.473644,4.420932 c 0.354087,0.09626 0.343774,-0.01719 0.295646,-0.28877 q -0.515661,-2.770821 -1.031322,-5.545076 a 2.0626433,2.0626433 0 0 0 -1.64152,-1.748091 c -2.629871,-0.687547 -5.258021,-1.402597 -7.87586,-2.146867 a 2.2001527,2.2001527 0 0 0 -2.535332,0.785523 c -1.060542,1.282277 -2.165776,2.526738 -3.252101,3.781512 -0.187357,0.230328 -0.371276,0.448626 -0.567227,0.684111 z m 15.399351,6.359817 a 1.7566845,1.7566845 0 0 0 -1.818564,1.902787 1.856379,1.856379 0 0 0 1.837472,1.851223 1.9440413,1.9440413 0 0 0 1.858098,-1.859816 1.8907563,1.8907563 0 0 0 -1.877006,-1.885601 z"
     id="path8"
     inkscape:connector-curvature="0"
     style="fill:#434343;stroke-width:1.71886945" />
  <path
     class="a"
     d="m 29.942854,17.811126 q -0.445187,-3.508213 -0.888656,-7.018143 c -0.05157,-0.412529 -0.118607,-0.8233403 -0.13751,-1.2375863 -0.02235,-0.469253 0.13751,-0.620513 0.596448,-0.632545 q 0.458939,-0.01029 0.917877,0 c 0.446907,0.01029 0.634262,0.171887 0.606761,0.635981 -0.03438,0.5723853 -0.116885,1.1430493 -0.189076,1.7188703 q -0.343773,2.750191 -0.69786,5.500383 c -0.04469,0.343773 -0.09454,0.699579 -0.142667,1.04851 z"
     id="path10"
     inkscape:connector-curvature="0"
     style="fill:#434343;stroke-width:1.71886945" />
  <path
     class="a"
     d="M 28.555727,17.895351 26.664971,15.41674 c -0.555196,-0.730519 -1.113829,-1.45932 -1.665585,-2.191557 -0.343775,-0.464096 -0.323148,-0.610199 0.152979,-0.943659 a 2.6951872,2.6951872 0 0 1 0.280175,-0.171888 c 0.460658,-0.24408 0.687549,-0.182201 0.893813,0.30424 0.374713,0.849122 0.727082,1.706837 1.084606,2.562834 q 0.599886,1.433537 1.194615,2.867075 z"
     id="path12"
     inkscape:connector-curvature="0"
     style="fill:#434343;stroke-width:1.71886945" />
  <path
     class="a"
     d="m 31.395299,17.341874 c 0.189076,-0.4555 0.376432,-0.91272 0.565508,-1.375095 l 1.708556,-4.082315 c 0.183919,-0.438311 0.333461,-0.50019 0.742552,-0.302521 0.152979,0.07392 0.307676,0.147823 0.458938,0.22689 0.436593,0.232049 0.48644,0.446907 0.187356,0.842247 q -1.120702,1.473071 -2.248281,2.940986 l -1.35275,1.773873 z"
     id="path14"
     inkscape:connector-curvature="0"
     style="fill:#434343;stroke-width:1.71886945" />
</svg>
